<?xml version="1.0" standalone="no"?>
<!DOCTYPE svg PUBLIC "-//W3C//DTD SVG 20010904//EN"
 "http://www.w3.org/TR/2001/REC-SVG-20010904/DTD/svg10.dtd">
<svg version="1.0" xmlns="http://www.w3.org/2000/svg"
 width="2000.000000pt" height="2000.000000pt" viewBox="0 0 2000.000000 2000.000000"
 preserveAspectRatio="xMidYMid meet">
<metadata>
Created by potrace 1.11, written by Peter Selinger 2001-2013
</metadata>
<g transform="translate(0.000000,2000.000000) scale(0.100000,-0.100000)"
fill="#000000" stroke="none">
<path d="M2716 17703 c-4 -5 -67 -11 -139 -15 -264 -14 -514 -52 -787 -119
-19 -4 -48 -11 -65 -14 -16 -4 -39 -10 -50 -15 -11 -4 -40 -13 -65 -20 -25 -7
-54 -16 -65 -20 -11 -5 -38 -14 -60 -21 -22 -6 -48 -15 -57 -20 -10 -5 -24 -9
-31 -9 -8 0 -27 -6 -43 -14 -16 -8 -47 -22 -69 -31 -118 -50 -216 -97 -274
-131 -49 -28 -190 -122 -208 -138 -6 -6 -45 -42 -86 -79 -66 -59 -175 -191
-232 -282 -21 -33 -96 -184 -100 -200 -1 -5 -7 -23 -14 -40 -16 -39 -59 -209
-66 -260 -20 -156 -25 -236 -21 -376 3 -87 10 -177 16 -200 6 -23 9 -47 6 -54
-2 -7 4 -50 15 -96 10 -46 19 -97 19 -113 0 -32 86 -354 99 -371 5 -5 25 -61
45 -124 20 -63 40 -119 45 -125 5 -6 14 -29 21 -51 30 -96 199 -458 302 -645
51 -93 219 -382 253 -435 17 -27 45 -71 61 -97 34 -55 186 -281 194 -288 3 -3
18 -25 34 -50 43 -66 287 -390 380 -504 45 -54 92 -113 106 -130 27 -35 186
-220 240 -280 19 -22 45 -51 58 -65 13 -14 88 -93 166 -176 78 -82 173 -184
211 -225 39 -41 79 -84 90 -96 29 -30 64 -72 110 -129 22 -27 42 -52 46 -55
33 -30 163 -204 263 -353 38 -56 77 -114 87 -129 11 -15 19 -29 19 -32 0 -3
14 -25 30 -50 17 -24 37 -59 46 -78 8 -18 26 -51 39 -73 14 -22 29 -51 35 -65
5 -14 15 -32 20 -40 6 -8 15 -26 20 -39 6 -13 24 -52 40 -85 17 -33 30 -68 30
-76 0 -8 7 -24 16 -35 8 -11 23 -48 34 -82 10 -34 26 -76 35 -93 18 -34 40
-106 79 -250 58 -219 75 -288 81 -340 4 -30 13 -80 21 -110 7 -31 16 -82 19
-114 3 -33 8 -63 11 -68 3 -4 9 -43 14 -86 5 -42 14 -117 20 -167 6 -49 13
-108 15 -130 3 -22 7 -62 10 -90 3 -27 23 -241 45 -475 22 -234 42 -441 45
-460 12 -97 38 -331 41 -376 2 -28 8 -62 13 -77 6 -15 8 -33 5 -41 -3 -8 1
-49 10 -91 9 -43 13 -81 10 -86 -3 -5 0 -25 6 -43 6 -19 15 -65 20 -103 12
-99 30 -211 41 -268 6 -27 19 -97 29 -155 45 -249 93 -472 141 -647 10 -39 19
-84 19 -100 1 -31 46 -196 78 -283 12 -30 35 -102 52 -160 51 -169 127 -387
152 -435 9 -17 24 -56 33 -87 9 -32 20 -60 24 -62 4 -3 16 -27 26 -53 17 -47
45 -109 91 -207 13 -28 24 -56 24 -63 0 -7 5 -13 10 -13 6 0 10 -5 10 -11 0
-7 19 -48 42 -93 76 -149 120 -231 132 -251 6 -11 22 -38 34 -60 12 -22 32
-56 44 -76 35 -56 92 -149 103 -168 30 -51 149 -222 161 -232 8 -6 14 -16 14
-21 0 -9 57 -86 109 -148 11 -14 24 -29 28 -35 72 -92 124 -157 153 -190 455
-512 878 -835 1330 -1015 205 -82 421 -106 535 -61 37 15 80 36 94 46 35 25
114 112 130 145 22 42 61 155 67 190 2 14 9 48 15 75 23 111 27 312 14 685 -8
244 -8 462 0 580 2 30 7 98 10 150 3 52 8 106 10 120 3 14 7 52 10 85 7 75 13
126 22 190 4 28 6 53 5 57 -1 4 3 30 8 57 5 28 12 74 15 103 4 29 10 71 15 93
5 22 12 60 15 85 4 25 13 77 22 115 8 39 16 86 18 106 9 76 134 548 167 625 6
16 12 34 13 39 0 6 3 15 6 20 4 6 12 28 19 50 16 49 120 287 147 335 11 19 35
62 53 95 93 170 241 338 380 431 144 96 340 147 482 125 229 -36 407 -121 619
-297 151 -125 442 -450 572 -639 15 -22 53 -74 83 -115 30 -41 57 -82 61 -90
4 -8 35 -56 70 -108 35 -51 78 -118 96 -149 18 -30 39 -65 47 -78 8 -12 32
-51 53 -86 21 -35 42 -71 47 -79 21 -33 192 -334 201 -354 6 -12 21 -39 34
-61 13 -22 39 -69 58 -105 19 -36 56 -103 81 -150 82 -154 235 -450 375 -725
81 -159 211 -410 305 -587 55 -105 161 -290 187 -328 9 -14 34 -52 55 -85 101
-160 259 -334 397 -436 422 -315 878 -158 1329 456 65 88 119 175 243 385 143
243 249 586 283 920 9 88 9 442 0 565 -12 150 -40 354 -64 465 -9 41 -18 84
-19 95 -5 60 -124 511 -170 645 -14 41 -37 111 -51 155 -14 44 -36 107 -49
140 -14 33 -38 98 -54 145 -28 80 -56 152 -121 315 -52 130 -81 200 -95 230
-8 17 -27 62 -44 100 -59 138 -284 636 -373 825 -22 47 -56 119 -75 160 -19
41 -52 111 -73 155 -94 197 -130 276 -130 285 0 5 21 21 48 36 284 161 494
350 655 592 242 362 356 837 318 1327 -13 167 -14 174 -171 1175 -50 322 -96
612 -100 645 -11 72 -44 233 -65 318 -52 204 -175 493 -280 657 -383 598
-1012 908 -1744 860 -552 -36 -1012 -223 -1355 -550 -295 -282 -480 -648 -553
-1095 -22 -137 -25 -532 -5 -670 33 -225 255 -1645 277 -1771 164 -929 720
-1551 1533 -1713 239 -48 556 -48 812 0 180 34 177 34 189 10 6 -11 30 -83 52
-158 77 -261 209 -624 329 -903 17 -41 41 -97 52 -125 11 -27 24 -55 29 -61 5
-6 15 -28 23 -50 8 -21 31 -77 51 -124 21 -47 46 -107 57 -135 10 -27 25 -64
33 -81 41 -89 216 -611 253 -754 19 -73 25 -102 77 -340 99 -455 120 -1010 55
-1430 -19 -122 -95 -417 -125 -485 -8 -16 -27 -64 -44 -105 -123 -298 -336
-553 -546 -652 -59 -28 -84 -33 -158 -36 -82 -4 -93 -2 -152 27 -120 59 -167
151 -185 363 -12 134 -31 227 -90 443 -66 237 -137 454 -189 569 -10 22 -22
52 -26 66 -9 31 -80 198 -100 237 -8 15 -15 31 -15 35 0 27 -297 618 -361 718
-5 8 -14 26 -21 40 -7 14 -17 32 -24 40 -6 8 -22 35 -36 60 -13 25 -32 59 -42
75 -11 17 -42 66 -69 110 -82 130 -98 155 -181 275 -325 469 -661 841 -1008
1117 -253 201 -484 338 -748 441 -281 109 -497 147 -790 139 -177 -5 -244 -12
-355 -37 -27 -6 -62 -13 -78 -17 -15 -3 -30 -9 -33 -14 -3 -5 -14 -9 -25 -9
-10 0 -27 -4 -37 -9 -9 -5 -51 -25 -92 -45 -77 -37 -131 -67 -140 -77 -3 -3
-26 -20 -52 -37 -121 -83 -307 -307 -383 -464 -44 -90 -101 -230 -125 -303
-12 -38 -24 -77 -27 -85 -9 -22 -11 -32 -18 -65 -3 -16 -8 -36 -10 -44 -11
-30 -56 -238 -60 -274 -2 -21 -8 -61 -14 -90 -6 -29 -13 -79 -16 -112 -4 -33
-8 -80 -11 -105 -2 -25 -6 -56 -9 -70 -4 -23 -10 -103 -21 -305 -9 -157 -13
-325 -19 -735 -7 -572 -12 -702 -30 -915 -32 -352 -115 -569 -251 -655 -90
-57 -273 -66 -366 -19 -10 5 -23 9 -29 9 -20 0 -132 61 -209 114 -95 65 -281
250 -393 391 -72 90 -229 313 -272 387 -71 121 -103 176 -109 188 -4 8 -18 33
-31 55 -29 49 -213 417 -250 500 -15 33 -38 83 -51 110 -13 28 -24 57 -24 65
0 9 -7 26 -16 38 -8 12 -23 46 -34 74 -10 29 -28 72 -39 95 -12 23 -21 48 -21
54 0 7 -9 31 -19 53 -31 65 -61 145 -61 164 0 10 -9 33 -19 53 -11 20 -34 83
-51 140 -17 57 -35 112 -40 121 -22 39 -69 195 -144 473 -142 528 -177 666
-187 725 -6 36 -22 112 -35 170 -14 58 -27 127 -29 153 -3 27 -12 74 -20 105
-8 32 -16 80 -19 108 -2 28 -9 68 -15 90 -6 21 -11 57 -12 79 -1 22 -8 69 -15
104 -7 36 -11 68 -9 71 2 4 0 23 -6 44 -6 20 -12 60 -14 89 -2 29 -11 117 -20
197 -9 80 -18 170 -20 200 -2 30 -7 84 -10 120 -26 271 -32 632 -24 1265 2
168 -4 284 -22 425 -5 47 -14 114 -19 150 -18 145 -140 591 -188 687 -10 21
-25 59 -32 86 -7 26 -16 47 -19 47 -4 0 -13 17 -20 38 -25 70 -217 446 -247
483 -6 8 -15 24 -18 37 -4 12 -11 22 -16 22 -5 0 -12 10 -16 22 -3 12 -21 43
-38 68 -17 25 -35 53 -41 62 -66 108 -330 478 -355 498 -3 3 -40 48 -81 100
-75 95 -101 125 -227 273 -177 208 -226 263 -408 463 -44 49 -98 109 -120 134
-21 25 -48 54 -59 65 -11 11 -56 61 -100 110 -44 50 -101 112 -127 140 -25 27
-57 63 -70 80 -13 16 -30 37 -38 45 -30 31 -176 202 -230 270 -19 24 -42 51
-51 61 -20 20 -164 210 -204 269 -105 153 -167 247 -178 270 -5 8 -19 33 -32
55 -13 22 -49 92 -81 155 -31 63 -65 131 -75 152 -11 20 -42 119 -70 220 -72
258 -83 387 -55 646 16 144 97 380 183 527 63 109 106 166 199 261 94 97 149
142 269 221 90 59 119 74 250 133 135 61 145 64 235 90 41 12 83 26 92 31 10
5 27 9 38 9 11 0 28 4 38 9 9 5 44 14 77 21 33 6 76 16 95 21 47 12 103 20
170 26 30 2 64 8 75 13 11 5 56 12 100 15 44 3 145 10 225 16 178 13 623 13
860 0 363 -21 705 -59 1093 -122 54 -8 95 -15 227 -38 30 -5 82 -14 115 -21
33 -7 80 -16 105 -21 264 -51 433 -86 570 -119 19 -5 58 -14 85 -20 69 -16
123 -29 170 -41 22 -5 58 -14 80 -20 22 -5 56 -14 75 -19 19 -4 59 -15 88 -23
28 -8 52 -12 52 -10 0 3 -60 33 -132 67 -173 81 -192 90 -258 116 -30 12 -71
28 -90 37 -19 8 -45 19 -57 24 -31 12 -69 27 -95 38 -66 26 -277 101 -303 108
-11 2 -29 8 -40 13 -26 11 -121 42 -215 70 -134 39 -145 42 -168 51 -13 5 -34
9 -47 9 -13 0 -26 4 -29 9 -3 5 -20 11 -38 14 -36 6 -90 19 -153 37 -22 6 -58
15 -80 20 -22 5 -60 14 -85 20 -25 6 -63 15 -85 19 -22 5 -65 14 -95 21 -82
18 -117 25 -315 61 -105 19 -182 31 -245 39 -36 5 -103 14 -150 20 -145 19
-270 30 -405 36 -71 3 -143 9 -159 15 -34 11 -609 13 -620 2z m9292 -4368
c469 -99 797 -452 911 -980 18 -79 263 -1632 290 -1838 16 -114 13 -332 -4
-443 -40 -245 -140 -454 -296 -619 -62 -65 -156 -145 -171 -145 -5 0 -43 155
-82 340 -35 159 -55 281 -86 510 -20 146 -60 586 -67 740 -5 91 -8 313 -8 493
0 274 -2 323 -13 298 -18 -46 -109 -408 -117 -466 -3 -27 -10 -68 -15 -90 -5
-22 -11 -62 -14 -90 -3 -27 -10 -86 -16 -130 -6 -44 -13 -118 -16 -165 -3 -47
-10 -125 -14 -175 -13 -141 -3 -639 15 -825 10 -91 18 -178 20 -195 3 -45 15
-131 30 -220 18 -103 28 -195 22 -195 -3 0 -49 -10 -103 -21 -132 -29 -390
-31 -509 -5 -343 75 -599 275 -770 600 -99 188 -133 315 -199 751 -20 127 -51
329 -70 450 -128 813 -156 1003 -165 1110 -27 313 44 605 205 845 86 128 257
276 411 353 116 59 298 110 453 127 102 12 290 4 378 -15z"/>
<path d="M9965 16954 c-215 -18 -293 -29 -490 -65 -27 -5 -69 -12 -93 -15 -23
-4 -45 -11 -48 -15 -3 -5 -16 -9 -29 -9 -30 0 -113 -19 -137 -31 -10 -5 -25
-9 -35 -9 -19 0 -79 -18 -105 -31 -10 -5 -29 -9 -42 -9 -14 0 -28 -4 -31 -10
-3 -5 -16 -10 -29 -10 -12 0 -26 -4 -31 -8 -6 -4 -28 -14 -50 -21 -22 -7 -50
-17 -62 -22 -56 -23 -79 -32 -98 -39 -11 -4 -54 -24 -95 -43 -41 -19 -93 -43
-115 -53 -22 -10 -42 -20 -45 -23 -3 -4 -16 -12 -29 -19 -13 -8 -39 -22 -57
-33 -19 -10 -49 -28 -68 -38 -18 -11 -44 -25 -57 -33 -13 -7 -26 -15 -29 -18
-3 -3 -25 -16 -50 -29 -25 -13 -70 -37 -100 -54 -30 -16 -82 -44 -115 -61 -33
-17 -62 -33 -65 -36 -3 -3 -45 -26 -95 -51 -49 -25 -121 -62 -158 -83 -38 -20
-75 -36 -82 -36 -7 0 -15 -3 -17 -7 -1 -5 -23 -18 -48 -29 -25 -12 -112 -54
-195 -94 -268 -130 -394 -188 -555 -257 -19 -9 -53 -23 -75 -33 -22 -10 -60
-27 -85 -38 -25 -11 -66 -29 -92 -41 -26 -12 -50 -21 -53 -21 -3 0 -25 -9 -50
-20 -25 -11 -65 -29 -90 -40 -25 -11 -49 -20 -55 -20 -6 0 -18 -4 -28 -9 -42
-23 -113 -51 -127 -51 -8 0 -15 -4 -15 -10 0 -12 290 -12 305 0 5 4 53 10 105
13 52 3 124 11 160 17 155 25 245 42 325 60 95 23 120 29 160 40 22 7 55 14
73 17 18 3 35 9 38 14 3 5 16 9 30 9 13 0 32 4 42 9 9 5 37 15 62 21 25 7 54
16 65 20 11 4 36 13 55 20 19 7 44 15 55 20 11 4 38 13 60 19 22 7 49 16 60
20 11 5 31 13 45 18 14 6 37 15 53 22 15 6 38 16 52 21 14 6 35 14 48 19 12 5
43 18 69 30 26 12 55 21 63 21 8 0 15 4 15 8 0 4 17 14 38 21 20 7 93 40 162
73 178 86 296 142 365 173 143 65 163 73 223 96 12 5 32 13 45 18 12 4 33 13
47 19 14 5 41 15 60 22 19 7 46 17 60 22 14 6 34 14 45 19 27 11 232 79 270
90 32 8 82 23 143 40 320 91 675 135 1001 125 318 -9 516 -46 794 -147 428
-155 759 -416 1012 -798 129 -195 264 -486 336 -721 18 -58 35 -109 39 -115 8
-10 35 -119 66 -260 9 -44 23 -102 29 -130 7 -27 23 -114 35 -193 13 -78 27
-139 31 -135 4 5 10 31 13 58 3 28 10 86 16 130 26 191 31 273 32 485 1 308
-21 499 -83 725 -54 200 -78 265 -151 410 -31 63 -32 65 -87 154 -145 236
-385 464 -641 608 -121 68 -154 84 -246 124 -458 194 -1065 276 -1669 223z"/>
<path d="M15300 14660 c-58 -10 -224 -37 -370 -60 -146 -23 -268 -44 -271 -48
-3 -4 6 -86 22 -182 15 -96 41 -265 58 -375 18 -110 38 -240 46 -290 12 -71
168 -1073 205 -1315 5 -30 20 -131 35 -225 15 -93 30 -195 35 -225 5 -30 54
-345 109 -700 56 -355 161 -1027 234 -1495 124 -800 133 -850 152 -849 27 2
360 53 710 109 87 14 433 68 545 85 196 30 221 34 930 145 234 36 466 73 515
80 50 8 149 23 220 35 72 11 159 25 195 30 266 40 491 78 497 83 3 4 1 37 -5
74 -6 38 -21 129 -33 203 -69 449 -73 465 -94 463 -17 -2 -916 -142 -2441
-380 -199 -31 -368 -54 -376 -51 -10 4 -35 143 -91 499 -73 470 -289 1855
-382 2454 -24 154 -100 645 -170 1090 -69 446 -128 822 -131 838 -6 31 -2 31
-144 7z"/>
<path d="M6890 13403 c-185 -15 -545 -94 -750 -165 -154 -53 -433 -192 -550
-275 -139 -99 -311 -274 -397 -405 -222 -337 -286 -721 -203 -1208 46 -269
138 -511 258 -679 154 -217 435 -407 707 -479 187 -49 572 -88 980 -97 330 -7
451 -13 625 -31 319 -32 478 -85 643 -211 167 -129 259 -349 258 -618 0 -198
-73 -374 -214 -518 -210 -215 -556 -357 -1032 -424 -177 -24 -523 -24 -685 1
-296 46 -566 141 -826 290 l-62 36 -196 -336 c-155 -263 -195 -338 -186 -349
21 -25 364 -191 495 -239 221 -81 486 -141 735 -166 155 -15 499 -13 684 6
435 42 832 146 1141 298 505 248 797 591 906 1065 26 112 36 395 20 541 -35
304 -125 577 -256 782 -99 154 -327 347 -518 437 -270 127 -672 190 -1382 216
-434 16 -716 55 -883 123 -311 127 -454 350 -454 707 0 155 20 245 82 363 113
216 329 379 639 483 386 129 769 143 1155 44 157 -40 283 -85 458 -165 l127
-58 130 251 c215 421 222 434 208 445 -17 14 -203 97 -312 140 -242 94 -535
165 -795 192 -89 9 -450 11 -550 3z"/>
</g>
</svg>
